<?xml version="1.0" encoding="UTF-8" standalone="no"?>
<!DOCTYPE svg PUBLIC "-//W3C//DTD SVG 1.1//EN" "http://www.w3.org/Graphics/SVG/1.1/DTD/svg11.dtd">
<svg width="100%" height="100%" viewBox="0 0 1800 1800" version="1.1" xmlns="http://www.w3.org/2000/svg" xmlns:xlink="http://www.w3.org/1999/xlink" xml:space="preserve" xmlns:serif="http://www.serif.com/" style="fill-rule:evenodd;clip-rule:evenodd;stroke-linejoin:round;stroke-miterlimit:2;">
    <g id="Gemini_Generated_Image_opnrfuopnrfuopnr.jpeg" transform="matrix(4.321696,0,0,4.321696,-462.860656,-305.749627)">
        <path d="M210.846,394.888C210.758,394.992 209.904,395.381 209.113,397.347C205.801,405.577 206.145,405.655 198.257,424.479C193.249,436.288 189.606,444.307 184.536,444.037C176.457,443.606 182.61,433.719 182.687,427.688C184.026,425.348 184.782,424.028 192.595,395.476C192.781,394.981 192.014,395.14 192.197,394.655C192.506,393.833 192.984,394.255 193.345,393.481C194.124,391.814 198.293,374.631 204.129,358.388C205.345,355.003 204.609,345.035 213.472,342.41C213.8,342.313 234.484,340.958 244.624,339.867C246.768,339.636 245.914,337.292 243.428,336.878C233.981,335.306 233.612,336.072 222.444,329.6C220.225,328.314 218.64,331.394 218.529,331.526C206.434,345.872 184.907,342.961 176.203,323.623C169.348,308.394 172.295,301.506 169.664,297.401C166.406,292.321 169.839,280.378 166.313,277.768C159.379,272.636 158.671,274.563 152.506,274.393C146.906,274.238 144.888,269.357 145.399,266.483C147.339,255.555 161.689,262.601 163.428,261.4C163.667,261.235 168.418,250.756 168.442,250.497C168.638,248.402 159.155,239.512 153.757,233.282C147.805,226.414 155.175,216.11 164.354,226.618C165.062,227.429 172.315,235.732 173.144,236.823C177.321,242.311 176.265,234.83 176.268,234.504C176.381,221.056 183.846,209.261 190.416,205.361C207.964,194.947 217.604,201.875 224.464,203.728C225.832,204.098 228.735,201.327 228.826,200.549C229.022,198.891 228.508,198.912 215.563,184.442C212.175,180.655 212.574,179.125 207.506,179.603C202.92,180.036 193.995,177.515 192.164,167.566C189.781,154.62 205.415,146.943 214.27,153.803C223.396,160.872 218.845,168.789 220.877,171.185C221.791,172.264 228.39,180.047 232.55,184.452C239.257,191.553 239.868,194.657 244.383,192.264C246.318,191.239 245.451,185.792 245.44,185.502C244.934,171.274 245.503,170.453 243.305,168.848C232.061,160.636 239.573,149.602 244.435,147.364C258.042,141.101 268.487,159.067 258.072,168.048C256.653,169.271 255.758,169.362 256.505,182.499C256.629,184.685 257.756,183.877 259.502,182.503C263.119,179.656 266.087,185.26 269.242,183.138C271.896,181.352 270.714,180.69 270.685,177.501C270.647,173.338 273.911,172.872 279.484,171.442C283.206,170.488 284.151,173.634 285.406,175.568C286.906,177.878 290.307,176.58 290.477,176.467C293.018,174.778 290.711,168.052 301.557,171.31C306.385,172.76 306.16,173.657 306.655,178.479C306.906,180.926 309.624,181.525 310.482,181.4C313.459,180.965 314.466,175.214 321.328,181.71C324.129,184.362 323.877,179.653 323.897,179.549C324.76,175.182 331.434,176.684 332.632,177.317C335.852,179.019 332.322,183.522 338.504,183.905C347.145,184.441 341.496,193.77 346.536,194.262C352.047,194.801 351.959,195.211 357.491,195.841C362.426,196.402 354.326,185.18 363.362,170.407C374,153.014 376.431,153.34 374.944,150.298C368.887,137.904 375.875,127.689 381.397,124.343C399.79,113.199 416.817,132.837 410.759,147.596C403.545,165.167 385.768,159.732 385.542,159.805C383.293,160.533 373.382,175.837 371.918,179.684C369.577,185.839 370.643,200.814 372.739,202.073C385.067,209.484 387.152,213.374 393.728,222.366C395.923,225.368 403.031,225.966 403.653,225.728C404.974,225.222 407.426,211.888 413.747,193.593C418.555,179.676 425.342,179.178 440.308,170.142C442.912,168.569 441.05,166.818 443.48,160.494C445.913,154.163 453.561,149.541 460.515,150.318C477.338,152.198 479.909,174.309 468.567,181.592C456.487,189.347 447.536,180.312 446.542,180.22C444.906,180.067 432.169,187.819 430.737,188.818C428.729,190.22 424.284,193.323 417.917,216.615C414.615,228.696 413.124,230.184 415.641,232.332C418.563,234.826 418.735,235.204 422.464,234.326C430.075,232.534 435.731,237.697 437.557,242.478C440.16,249.295 435.676,255.499 436.117,256.626C436.265,257.005 436.34,256.94 439.089,258.931C442.43,261.35 444.691,267.953 445.073,271.534C446.339,283.413 440.668,285.631 439.097,293.422C438.662,295.576 441.443,296.374 442.283,296.822C464.245,308.547 460.712,332.997 450.555,336.642C444.042,338.979 445.805,331.383 445.091,327.547C444.104,322.237 432.713,327.431 435.316,318.453C435.52,317.753 435.841,317.086 436,316.374C436.648,313.47 429.752,311.332 429.462,311.382C428.188,311.601 429.393,320.166 424.472,321.391C416.88,323.281 418.793,307.27 415.142,314.196C413.023,318.215 403.542,315.859 403.38,318.476C403.095,323.06 418.478,319.787 411.942,328.812C409.6,332.046 416.632,333.386 418.279,334C431.07,338.768 412.234,345.582 399.37,340.862C385.512,335.777 383.344,325.187 382.975,324.243C382.158,322.153 380.115,323.786 380.277,325.532C380.422,327.092 389.135,342.538 389.691,343.379C395.142,351.638 396.62,357.066 400.452,355.38C425.227,344.477 435.327,339.295 442.078,347.846C447.143,354.26 450.891,386.476 451.059,392.534C451.217,398.27 451.793,398.193 451.778,398.688C451.769,398.975 451.345,399.139 451.336,399.426C451.054,403.177 450.602,416.592 444.618,414.158C440.129,412.332 440.897,401.271 437.311,398.753C437.423,398.271 437.996,397.982 438.108,397.5C438.179,397.192 434.161,380.854 432.327,370.546C430.709,361.455 432.241,358.767 428.593,359.829C417.149,363.16 399.674,373.397 390.448,370.671C387.91,369.921 384.405,368.886 371.786,343.357C370.163,340.074 368.879,335.331 367.457,335.336C363.682,335.349 375.807,352.572 369.187,360.257C360.658,370.159 347.863,360.764 347.473,360.626C346.202,360.175 344.267,365.366 348.488,365.728C375.679,368.061 375.173,377.826 376.929,392.461C377.082,393.737 377.714,393.492 377.917,394.761C377.962,395.042 377.415,395.2 377.46,395.481C377.412,395.966 377.171,395.965 378.644,419.448C378.911,425.123 380.034,441.107 377.165,444.215C369.91,452.075 365.174,427.968 363.02,419.516C361.995,412.98 361.972,413.025 361.913,412.457C360.287,396.902 361.083,396.378 359.124,394.938C359.747,392.988 360.261,392.95 359.128,387.587C359.059,387.26 358.561,384.903 357.172,383.9C355.176,382.459 345.99,382.71 345.616,382.818C344.853,383.038 344.539,383.129 343.256,392.456C343.085,393.704 343.791,393.551 343.812,394.791C343.816,395.039 343.291,395.078 343.295,395.326C342.522,397.047 342.493,397.11 339.236,418.555C338.692,421.419 338.46,430.208 333.601,429.065C328.356,427.831 328.003,421.178 327.506,418.501C326.054,402.363 328.026,402.241 326.647,395.399C326.719,395.142 325.948,395.158 326.021,394.901C326.183,394.327 326.901,394.063 327.174,393.533C327.209,393.464 327.771,383.653 327.74,383.46C327.361,381.135 321.335,382.264 318.453,381.686C302.872,378.563 308.268,365.267 308.375,364.486C308.712,362.013 302.089,362.897 301.471,363.465C299.019,365.717 300.748,373.016 284.464,370.742C278.103,369.853 278.129,365.727 272.641,368.758C265.819,372.527 263.2,372.915 262.164,376.393C261.173,379.721 265.444,394.382 265.852,395.567C266.373,400.33 270.601,417.795 271.442,420.534C272.048,429.679 278.666,448.905 272.538,453.544C265.442,458.916 264.805,449.013 262.249,441.588C261.615,439.747 256.571,425.094 254.747,418.437C251.173,406.97 251.347,406.961 247.37,395.615C247.078,394.576 246.695,392.707 246.642,392.453C244.707,383.017 239.774,375.033 239.944,371.481C240.624,357.292 256.762,360.943 253.27,357.779C252.863,357.41 248.901,357.85 248.523,357.892C230.119,359.934 230.084,359.223 228.496,359.471C227.926,359.56 227.628,359.607 222.835,363.927C220.179,366.321 215.141,382.682 212.929,387.717C210.917,392.299 211.387,392.422 210.846,394.888ZM196.675,215.743C189.123,222.865 189.882,223.886 190.595,224.334C191.245,224.742 198.854,217.948 208.636,214.861C212.277,213.711 216.355,213.63 212.815,212.12C208.882,210.443 202.505,212.695 201.661,212.993C198.947,213.951 199.11,214.176 196.675,215.743ZM203.537,321.444C200.689,318.786 200.745,318.734 200.483,318.519C197.824,316.345 188.235,319.102 184.262,306.577C184.113,306.11 182.323,300.466 180.588,301.676C179.854,302.188 182.17,311.872 183.06,314.648C191.445,340.792 214.083,326.144 209.527,324.456C206.336,323.274 206.374,323.284 203.537,321.444Z" style="fill:rgb(7,6,20);"/>
        <path d="M353.518,300.589C357.255,299.68 357.544,298.969 360.697,301.219C369.785,307.706 385.043,305.993 383.289,302.651C382.433,301.018 376.057,305.479 364.484,300.542C356.672,297.21 359.615,292.867 354.441,291.804C350.576,291.01 353.751,282.433 350.618,281.204C350.213,281.045 349.77,281.002 349.36,280.858C346.283,279.772 350.123,274.871 344.53,274.185C338.433,273.437 336.449,274.988 336.628,271.503C336.647,271.132 336.85,267.166 337.712,266.986C338.189,266.887 347.321,271.887 354.13,265.126C356.641,262.634 362.06,252.251 350.802,245.046C348.136,243.34 350.344,242.104 351.493,242.278C355.051,242.819 354.969,243.062 358.514,243.347C369.762,244.252 376.562,250.115 377.285,252.575C382.476,270.255 401.47,265.757 398.846,254.412C396.642,244.883 384.693,239.708 378.827,246.802C376.344,249.804 374.128,242.369 360.46,240.868C354.851,240.253 354.345,241.052 353.48,239.502C352.822,238.321 364.477,230.385 366.48,231.53C366.935,231.79 368.791,239.877 374.478,238.42C381.353,236.658 374.221,227.454 378.541,228.209C378.964,228.283 387.313,235.189 388.035,235.915C394.184,242.089 394.242,246.058 401.441,244.259C409.812,242.168 397.388,227.978 403.482,230.565C416.424,236.058 416.129,237.539 415.442,238.456C415.301,238.645 408.318,241.276 408.801,250.479C409.45,262.867 423.462,261.581 425.592,251.529C425.637,251.314 426.424,247.603 428.205,250.713C429.719,253.356 431.598,256.588 430.286,257.164C430.069,257.258 418.404,258.614 420.56,276.492C421.862,287.289 427.938,291.133 432.504,290.889C434.051,290.806 434.124,290.482 434.884,291.096C436.23,292.185 434.723,293.69 433.409,294.092C428.701,295.531 428.005,294.666 427.72,294.31C426.095,292.287 418.687,280.389 403.506,289.509C397.757,292.962 397.046,299.406 394.555,299.852C388.863,300.87 387.864,300.461 383.876,308.667C382.641,308.858 382.721,309.062 381.5,309.034C377.447,308.942 365.811,310.163 353.518,300.589Z" style="fill:rgb(204,177,224);"/>
        <path d="M285.036,256.375C285.571,254.505 290.608,236.911 293.647,233.636C296.419,230.648 323.364,242.78 325.993,245.088C327.845,246.714 323.117,252.272 321.386,263.481C317.781,286.814 326.662,300.792 326.696,301.488C326.721,302.003 326.765,302.911 322.245,306.158C311.658,313.762 310.444,313.261 309.372,312.82C305.552,311.246 303.269,305.125 302.972,304.328C299.37,294.671 301.789,293.114 302.578,292.606C305.603,290.658 305.286,286.457 304.128,284.711C298.959,276.921 289.087,287.547 295.619,292.346C296.213,292.782 296.963,292.994 297.519,293.479C298.406,294.254 298.834,299.264 299.129,300.591C301.745,312.337 306.372,313.088 306.466,314.498C306.552,315.794 301.113,317.41 300.57,317.183C298.524,316.328 291.5,300.431 290.362,285.512C289.351,272.251 292.758,269.004 285.458,267.686C282.759,267.199 282.489,265.955 285.036,256.375Z" style="fill:rgb(169,185,242);"/>
        <path d="M249.009,239.496C248.164,239.858 247.318,240.22 246.473,240.583C245.765,240.455 239.305,239.289 237.708,242.579C236.615,244.83 237.589,247.481 232.613,246.138C228.926,245.143 224.723,251.173 226.757,254.332C229.347,258.353 225.862,258.935 224.547,259.582C222.774,260.454 221.185,267.836 226.544,269.329C229.628,270.188 229.166,271.661 228.2,275.429C227.46,276.374 227.324,276.165 226.313,276.767C226.193,276.581 217.231,266.222 215.173,248.537C213.071,230.479 221.458,216.198 222.902,213.738C229.307,202.83 243.887,195.335 253.545,193.794C256.248,193.363 257.339,195.568 256.329,197.395C255.23,199.382 251.729,198.585 251.502,198.585C248.376,198.579 248.226,202.998 247.277,204.344C245.685,206.605 234.497,203.438 230.776,208.666C229.319,210.713 229.531,210.814 227.921,212.747C224.935,216.332 224.503,222.356 225.529,223.473C226.922,224.991 245.532,223.817 247.594,224.269C249.015,224.58 250.26,229.785 246.524,229.85C234.574,230.058 233.98,229.577 233.147,228.901C229.603,226.028 227.963,233.192 232.536,232.743C233.73,232.626 243.575,231.659 247.527,232.423C248.945,232.697 248.836,234.935 249.009,239.496Z" style="fill:rgb(197,164,228);"/>
        <path d="M378.461,299.057C377.937,299.057 369.991,300.11 363.712,294.261C358.555,289.457 356.953,281.336 359.837,273.622C360.581,271.632 360.932,271.636 360.342,269.561C359.28,265.821 369.792,263.485 374.498,263.606C397.958,264.208 401.889,294.722 380.553,298.762C379.861,298.893 379.152,298.926 378.461,299.057Z" style="fill:rgb(8,7,21);"/>
        <path d="M259.143,266.391C258.71,268.484 258.435,268.574 259.586,270.439C261.887,274.171 257.901,274.93 257.447,274.854C256.036,274.618 255.695,273.153 250.383,276.324C248.764,277.29 249.519,281.876 245.389,280.889C243.466,280.43 244.668,278.126 241.558,277.263C238.387,276.383 238.279,275.756 235.278,277.079C233.657,277.793 230.891,276.909 231.964,273.703C232.14,273.175 233.298,269.714 229.751,267.113C229.433,266.88 225.612,266.547 225.991,263.517C226.327,260.835 229.997,262.767 230.848,256.569C231.29,253.348 227.741,252.332 230.751,249.809C232.069,248.705 233.646,250.537 235.627,249.815C242.199,247.422 239.44,244.302 241.501,243.502C245.466,241.963 244.588,245.986 247.334,246.966C251.558,248.475 251.697,248 253.743,246.872C255.53,245.885 258.433,247.297 257.05,250.296C256.683,251.093 256.016,256.621 261.499,257.506C264.356,257.967 263.909,261.577 262.411,262.32C259.915,263.557 260.007,263.761 259.143,266.391Z" style="fill:rgb(170,147,195);"/>
        <path d="M330.663,200.999C331.815,200.655 338.647,198.618 345.501,198.563C350.61,198.522 358.392,199.331 359.211,199.911C362.751,202.416 357.94,201.232 349.537,201.817C345.3,202.112 330.34,205.989 331.224,209.607C331.389,210.283 342.314,218.252 346.083,222.781C347.553,224.547 345.537,224.489 340.156,229.113C329.76,238.048 330.144,243.933 326.655,242.149C323.08,240.322 323.765,239.19 325.962,235.791C329.8,229.855 334.218,228.655 328.464,224.551C324.928,222.029 320.088,219.677 319.623,219.343C317.551,217.856 321.418,215.718 322.187,215.096C325.704,212.256 322.666,211.316 321.673,211.906C314.169,216.365 306.144,228.552 305.056,230.203C303.955,231.876 303.573,231.993 297.442,230.648C295.046,230.122 296.594,227.847 300.176,223.253C310.938,209.446 320.18,204.802 330.663,200.999Z" style="fill:rgb(184,172,235);"/>
        <path d="M392.497,156.929C391.493,156.87 385.33,156.511 380.878,152.148C370.664,142.137 379.092,124.162 392.494,124.933C413.106,126.119 413.562,155.558 392.497,156.929Z" style="fill:rgb(141,128,170);"/>
        <path d="M264.495,322.918C262.841,322.898 245.44,322.686 243.897,321.131C243.092,320.319 241.692,305.904 243.419,305.352C245.711,304.619 245.776,305.256 273.5,305.61C278.916,305.679 282.283,304.673 283.342,307.557C287.773,319.625 288.71,319.4 288.472,320.487C287.982,322.718 266.423,322.901 264.495,322.918Z" style="fill:rgb(150,193,237);"/>
        <path d="M357.407,325.878C362.42,326.821 363.479,327.257 369.494,326.586C374.244,326.056 369.448,329.093 369.27,329.206C362.663,333.39 361.789,333.9 360.288,331.628C358.796,329.371 357.264,329.467 351.523,329.853C345.496,330.258 349.707,337.362 344.46,338.255C342.518,338.586 339.225,340.072 340.778,335.601C346.756,318.388 321.927,307.976 314.569,322.534C312.378,326.87 314.632,327.244 315.571,326.575C315.586,326.564 318.298,317.677 327.503,318.451C342.639,319.723 339.966,341.429 333.405,338.667C331.435,337.838 336.873,326.883 328.596,324.193C319.167,321.13 316.394,333.341 316.37,333.36C314.247,335.021 300.903,323.347 303.106,321.179C304.337,319.967 313.636,317.946 327.237,307.12C330.722,304.347 329.757,308.903 339.658,317.32C345.575,322.351 355.896,325.428 357.407,325.878Z" style="fill:rgb(114,113,146);"/>
        <path d="M335.863,293.448C335.547,293.876 333.595,296.52 331.459,298.437C329.682,300.033 329.454,298.705 328.428,296.535C316.656,271.632 328.706,232.009 357.621,222.854C362.228,221.396 364.127,219.828 365.038,224.575C366.093,230.065 359.63,225.56 345.328,241.35C342.47,244.505 335.015,243.164 332.323,251.443C330.43,257.264 333.161,262.042 333.353,262.55C335.247,267.574 328.8,271.721 335.863,293.448Z" style="fill:rgb(93,93,125);"/>
        <path d="M302.957,179.469C303.246,181.148 302.429,182.151 308.66,185.166C313.04,187.285 314.25,180.172 318.275,183.736C321.948,186.989 315.665,186.111 314.599,188.547C313.978,189.968 315.411,195.221 310.409,192.65C306.112,190.441 298.402,181.235 279.492,187.476C271.816,190.01 261.831,199.134 260.289,210.471C259.858,213.636 259.524,214.545 256.427,213.72C254.141,213.112 255.935,211.088 252.248,208.948C247.136,205.982 252.391,202.163 252.418,202.157C252.995,202.026 257.082,202.729 258.055,201.195C258.325,200.769 260.827,196.823 260.744,195.482C260.618,193.449 255.806,189.836 260.446,186.439C264.136,183.737 265.382,189.561 269.33,187.223C273.811,184.571 274.09,183.895 274.28,183.434C274.664,182.502 273.256,177.017 276.349,176.084C280.066,174.962 280.569,175.132 282.706,178.372C284.517,181.118 285.054,180.855 291.448,180.179C295.351,179.766 294.013,173.083 298.569,174.226C303.7,175.513 302.697,176.925 302.957,179.469Z" style="fill:rgb(202,186,225);"/>
        <path d="M284.331,335.427C283.522,336.156 283.546,336.109 282.535,336.461C280.626,333.199 278.085,327.474 267.48,328.41C258.19,329.23 256.614,338.131 255.601,338.651C250.345,341.352 240.01,325.201 245.497,325.55C251.035,325.902 250.967,326.248 256.497,326.591C258.246,326.7 279.099,326.463 283.536,325.729C296.982,323.503 297.814,321.507 300.317,324.626C305.794,331.448 312.977,336.076 314.224,336.879C314.401,336.993 315.441,337.662 315.006,339.397C310.307,358.127 310.198,358.48 308.619,358.937C306.693,359.495 294.214,358.84 293.631,358.32C291.728,356.622 296.825,356.075 300.918,350.815C301.994,349.433 309.241,345.996 307.594,337.484C306.41,331.362 296.868,322.399 287.836,329.868C285.671,331.658 284.507,334.931 284.331,335.427Z" style="fill:rgb(101,100,132);"/>
        <path d="M458.511,153.986C459.192,154.063 459.882,154.062 460.563,154.139C473.108,155.556 476.138,174.099 464.572,179.658C446.599,188.296 435.884,157.475 458.511,153.986Z" style="fill:rgb(136,123,163);"/>
        <path d="M405.206,143.438C398.19,165.86 369.52,148.406 382.341,132.362C388.967,124.07 406.875,126.934 405.206,143.438Z" style="fill:rgb(21,20,37);"/>
        <path d="M264.126,238.503C264.626,233.116 268.036,222.048 271.459,221.315C272.075,221.184 272.726,221.22 273.325,221.026C274.925,220.505 278.998,214.005 281.76,211.845C283.936,210.144 285.628,211.527 287.026,206.393C289.253,198.216 315.069,193.805 314.136,198.399C313.982,199.158 310.809,199.514 310.506,199.548C302.9,200.4 304.663,202.942 304.237,204.427C303.513,206.952 301.159,202.212 298.492,202.275C296.758,202.316 292.319,205.111 291.704,205.702C289.671,207.653 294.328,219.367 288.467,218.741C285.284,218.401 284.016,213.846 278.981,219.908C273.766,226.186 279.873,227.858 280.331,230.539C281.253,235.935 272.895,231.465 271.246,235.388C267.33,244.705 271.312,244.627 274.567,246.406C276.103,247.246 275.71,250.221 274.928,250.973C273.608,252.242 265.209,248.44 264.126,238.503Z" style="fill:rgb(164,166,192);"/>
        <path d="M276.505,261.899C272.768,261.805 272.258,261.214 272.26,257.504C272.262,253.569 278.05,255.609 278.571,250.507C279.075,245.568 278.662,245.154 274.367,242.717C274.021,242.521 271.808,241.264 273.947,237.766C275.266,235.609 280.787,238.74 282.628,234.564C285.069,229.023 282.754,229.051 280.762,225.372C280.222,224.375 281.513,218.928 285.719,221.059C287.805,222.115 289.623,223.688 293.145,220.138C297.384,215.863 291.916,208.878 296.515,206.526C299.725,204.885 299.841,207.357 303.818,210.12C308.297,213.232 299.396,212.107 287.725,236.606C283.334,245.824 280.777,257.595 280.369,259.473C279.809,262.052 279.161,261.791 276.505,261.899Z" style="fill:rgb(134,134,161);"/>
        <path d="M279.348,290.51C277.961,291.9 278.022,292.009 277.853,292.009C277.739,292.008 277.86,291.852 276.775,291.088C266.433,283.805 269.067,297.189 268.817,301.569C268.707,303.501 264.727,302.867 264.426,302.594C263.171,301.454 264.414,287.482 261.239,291.225C260.765,291.784 260.803,296.991 260.807,297.493C260.835,301.272 262.174,303.433 258.424,302.868C255.89,302.486 257.804,295.113 255.464,294.968C252.273,294.77 256.361,304.194 251.417,302.686C249.454,302.088 251.174,293.491 248.465,294.416C247.202,294.848 247.672,301.229 247.612,301.53C247.222,303.515 243.529,302.481 243.517,302.472C242.866,302.009 242.187,301.526 242.642,292.518C242.851,288.373 252.861,292.472 266.828,281.942C270.092,279.482 277.013,279.942 277.666,280.264C278.41,280.632 278.17,280.853 279.348,290.51Z" style="fill:rgb(146,195,243);"/>
        <path d="M353.518,300.589C365.811,310.163 377.447,308.942 381.5,309.034C382.721,309.062 382.641,308.858 383.876,308.667C382.308,314.853 382.621,314.918 382.271,315.341C380.298,317.723 361.511,315.183 352.588,308.379C341.905,300.233 339.826,293.841 337.466,285.508C336.877,283.428 337.532,283.136 339.496,283.229C346.036,283.536 349.29,283.129 349.631,285.475C350.675,292.653 348.18,292.375 347.844,292.814C347.794,292.88 346.276,295.526 348.356,298.615C349.627,300.503 353.076,300.579 353.518,300.589Z" style="fill:rgb(186,150,215);"/>
        <path d="M200.285,234.457L201.505,236.712C199.419,237.367 197.422,237.58 197.451,240.501C197.473,242.67 198.278,243.314 195.632,244.765C192.61,246.422 191.129,252.015 195.42,254.644C198.298,256.408 193.878,258.504 197.784,263.229C200.682,266.735 201.459,265.2 203.497,265.521C205.318,265.807 205.729,270.702 211.491,270.756C214.495,270.784 215.873,267.216 217.247,269.648C220.305,275.059 220.594,274.905 220.718,275.43C220.755,275.588 221.178,277.374 219.502,277.053C208.029,274.862 192.444,274.306 188.291,240.52C187.31,232.54 187.443,231.752 193.879,226.954C194.65,226.379 203.019,220.141 204.551,221.427C204.831,221.663 205.467,224.204 203.315,225.052C201.487,225.773 194.009,227.432 198.259,234.738C198.901,235.842 199.17,235.089 200.285,234.457Z" style="fill:rgb(187,183,243);"/>
        <path d="M455.598,178.228C441.532,171.752 449.08,155.906 459.501,156.462C474.193,157.246 472.621,182.144 455.598,178.228Z" style="fill:rgb(18,18,35);"/>
        <path d="M396.655,131.16C413.125,140.744 394.136,160.442 383.807,147.266C378.161,140.066 385.017,126.291 396.655,131.16Z" style="fill:rgb(176,182,251);"/>
        <path d="M253.501,309.103C279.972,308.891 279.995,309.372 280.391,309.661C281.872,310.743 284.263,318.495 278.515,318.805C276.904,318.892 251.464,318.912 249.489,318.605C244.386,317.813 245.569,309.722 248.428,309.182C248.827,309.107 249.621,308.957 253.501,309.103Z" style="fill:rgb(10,10,25);"/>
        <path d="M201.456,174.577C200.335,173.821 197.055,172.198 196.149,167.57C193.441,153.737 212.937,150.875 216.302,162.564C218.41,169.888 213.49,170.305 212.796,170.872C209.833,173.291 210.614,178.438 201.456,174.577Z" style="fill:rgb(177,182,251);"/>
        <path d="M361.029,206.588C362.948,216.734 363.313,217.336 361.723,217.955C356.683,219.919 356.57,219.492 351.547,221.602C348.447,222.904 347.809,219.964 342.522,215.477C339.277,212.723 338.086,211.645 337.113,210.985C335.399,209.822 334.439,209.038 336.347,208.286C337.09,207.994 346.826,203.558 358.547,204.098C361.011,204.211 360.785,205.927 361.029,206.588Z" style="fill:rgb(185,183,246);"/>
        <path d="M337.435,296.561C350.964,320.63 370.402,318.404 377.429,319.666C377.745,319.723 379.798,320.98 376.627,321.734C373.845,322.395 356.116,326.61 341.664,314.3C335.458,309.014 331.983,303.682 332.089,302.503C332.148,301.84 335.191,297.922 337.435,296.561Z" style="fill:rgb(101,100,137);"/>
        <path d="M238.478,355.053C230.638,355.61 228.566,356.244 228.285,353.528C227.955,350.341 228.041,350.298 226.442,347.529C224.786,344.661 229.447,345.089 231.535,344.908C236.317,344.493 233.73,349.901 238.516,350.22C239.965,350.317 251.035,350.076 253.333,349.048C257.389,347.232 254.199,343.536 258.522,342.662C262.225,341.913 272.161,341.334 267.634,348.593C264.12,354.228 254.676,353.515 243.517,354.689C242.953,354.748 238.881,355.026 238.478,355.053Z" style="fill:rgb(200,184,229);"/>
        <path d="M401.456,302.549C400.273,301.477 398.209,301.268 399.949,297.731C406.888,283.625 429.356,289.091 426.14,302.349C425.418,305.327 421.07,298.085 416.858,302.805C415.663,304.145 415.345,305.831 413.357,303.64C412.937,303.178 409.186,299.044 405.554,303.547C403.858,305.648 403.285,304.567 401.456,302.549Z" style="fill:rgb(145,134,181);"/>
        <path d="M337.433,249.435C337.61,249.307 337.707,249.087 337.885,248.959C347.091,242.329 357.188,251.431 353.392,260.454C348.524,272.024 327.659,261.37 337.433,249.435Z" style="fill:rgb(160,152,187);"/>
        <path d="M296.663,264.857C297.844,264.532 300.849,263.149 303.88,267.221C307.287,271.798 315.487,265.547 315.783,273.493C316.311,287.718 319.167,288.444 315.292,293.34C312.486,296.885 314.274,297.236 315.015,298.686C317.557,303.666 309.196,307.827 306.398,303.578C302.419,297.538 310.291,295.426 311.226,294.26C314.975,289.584 314.687,288.082 314.572,287.489C312.1,274.627 313.118,274.498 312.858,273.392C312.424,271.546 305.921,270.759 304.099,273.189C298.503,280.654 287.241,271.065 296.663,264.857Z" style="fill:rgb(12,13,32);"/>
        <path d="M351.541,370.057C356.667,370.514 361.068,370.504 358.329,373.357C355.285,376.528 357.553,379.614 353.526,379.237C349.396,378.85 352.461,374.749 348.48,373.571C347.514,373.285 338.348,371.977 336.656,373.663C335.116,375.198 336.942,378.399 333.499,378.325C325.242,378.147 318.11,378.916 318.184,372.494C318.253,366.421 324.971,368.389 339.475,368.936C343.824,369.099 348.537,369.774 351.541,370.057Z" style="fill:rgb(187,177,229);"/>
        <path d="M178.096,249.571C178.701,252.841 178.411,257.533 186.949,272.045C190.533,278.137 198.132,283.111 199.275,283.859C199.678,284.123 201.925,285.594 200.873,289.665C200.638,290.577 199.88,291.561 189.566,286.376C189.376,286.28 188.2,285.689 187.829,284.369C187.527,283.294 187.804,282.823 185.561,275.485C183.418,268.473 182.983,268.551 182.591,268.28C179.114,265.876 176.477,267.995 175.546,265.477C171.384,254.224 172.189,252.607 172.694,251.592C175.595,245.762 175.968,245.748 176.528,245.728C177.917,245.678 177.997,249.006 178.096,249.571Z" style="fill:rgb(191,185,243);"/>
        <path d="M259.112,384.591C259.78,387.33 260.727,390.181 259.18,391.064C257.658,391.932 255.109,392.067 256.224,396.573C258.847,407.174 259.431,411.263 262.563,410.84C266.008,410.375 265.345,411.975 265.992,415.401C266.107,416.011 269.033,422.642 262.492,423.345C259.13,423.707 260.224,421.666 252.509,398.497C252.14,397.39 248.887,387.621 248.407,384.504C247.984,381.764 250.198,384.08 256.383,382.09C258.629,381.368 258.548,382.341 259.112,384.591Z" style="fill:rgb(198,183,227);"/>
        <path d="M368.487,274.638C368.161,274.933 367.836,275.227 367.51,275.521C367.186,275.885 363.674,279.828 368.487,281.536C370.968,282.416 370.992,281.76 373.221,280.332C373.699,281.131 374.696,280.823 374.382,283.483C373.712,289.177 378.399,291.621 381.576,290.746C384.943,289.818 384.151,288.825 385.922,285.859C386.589,284.741 390.839,287.161 389.362,289.422C381.197,301.926 357.214,295.24 362.372,276.463C363.973,270.637 366.211,272.646 368.487,274.638Z" style="fill:rgb(108,102,135);"/>
        <path d="M235.847,260.565C239.209,249.003 251.6,252.274 253.545,260.489C256.283,272.054 234.706,277.002 235.847,260.565Z" style="fill:rgb(9,7,22);"/>
        <path d="M284.964,299.368C284.56,297.735 282.479,289.317 282.369,278.499C282.287,270.477 283.196,270.224 284.46,270.154C288.733,269.917 287.17,273.48 287.685,283.491C287.822,286.151 288.591,301.126 296.105,315.701C296.276,316.032 298.709,320.75 293.483,319.555C290.604,318.897 285.45,301.052 284.964,299.368Z" style="fill:rgb(188,184,242);"/>
        <path d="M173.961,302.468C174.102,301.471 173.767,301.498 173.904,300.534C173.918,300.435 174.016,299.744 174.399,299.387C174.647,299.156 176.69,297.331 177.227,302.536C180.468,333.959 201.64,340.981 214.115,326.142C216.741,323.018 217.855,326.5 217.377,327.449C213.432,335.267 199.527,340.325 190.613,335.287C177.831,328.064 175.13,312.091 173.961,302.468Z" style="fill:rgb(164,153,218);"/>
        <path d="M195.064,402.52C195.554,399.164 195.778,399.214 205.843,364.599C206.669,361.759 207.501,360.316 209.37,362.621C210.859,364.457 206.58,373.683 203.324,385.457C202.177,389.607 205.34,391.975 205.596,392.439C206.196,393.53 206.506,394.094 201.152,407.351C200.189,409.736 196.888,409.169 195.064,402.52Z" style="fill:rgb(199,183,227);"/>
        <path d="M296.599,189.132C297.241,189.328 308.901,192.889 303.605,193.739C292.894,195.459 288.908,190.085 277.478,197.47C270.075,202.253 268.622,209.228 268.363,210.472C267.715,213.58 267.496,214.447 264.409,213.753C260.183,212.802 268.802,184.231 296.599,189.132Z" style="fill:rgb(127,125,152);"/>
        <path d="M211.156,237.476C210.885,241.54 212.109,242.552 208.404,244.337C201.993,247.428 202.839,258.632 210.419,259.963C213.465,260.498 214.061,260.423 214.575,263.491C214.969,265.848 210.425,269.44 208.604,266.429C206.779,263.411 207.065,262.693 203.544,262.269C201.124,261.978 200.483,262.778 199.468,260.517C198.543,258.458 201.114,254.582 198.37,252.673C198.152,252.521 192.644,249.809 198.319,247.049C203.005,244.77 198.474,239.878 202.502,239.515C205.383,239.256 206.388,240.085 207.452,236.487C207.626,235.898 211.102,231.884 211.156,237.476Z" style="fill:rgb(139,139,172);"/>
        <path d="M451.263,171.626C447.279,162.677 455.855,159.361 456.41,159.194C469.768,155.184 471.226,178.342 457.544,176.201C453.459,175.562 453.591,175.036 451.263,171.626Z" style="fill:rgb(176,183,250);"/>
        <path d="M374.956,433.508C374.954,433.61 375.469,443.905 373.174,439.955C371.552,437.164 365.961,418.482 365.332,408.512C364.483,395.064 364.653,394.84 362.977,388.449C362.49,386.592 364.376,385.926 365.587,388.441C369.104,395.746 367.136,413.841 372.402,415.815C375.157,416.848 374.5,417.578 374.673,420.493C374.865,423.731 374.946,432.466 374.956,433.508Z" style="fill:rgb(182,180,229);"/>
        <path d="M360.433,361.085C359.169,361.138 353.799,361.366 345.733,355.257C343.789,353.785 350.147,350.333 351.501,350.33C356.694,350.321 356.246,358.301 359.284,357.064C362.274,355.846 355.461,347.217 357.869,344.901C362.652,340.301 362.949,340.318 363.528,340.352C364.768,340.425 365.449,345.589 365.997,347.363C368.291,354.782 369.328,357.958 360.433,361.085Z" style="fill:rgb(137,130,173);"/>
        <path d="M396.539,320.4C396.261,320.587 395.875,319.859 395.597,320.047C392.243,322.316 402.442,331.065 403.295,331.796C404.334,332.687 404.305,332.65 404.391,332.725C407.047,335.05 407.043,332.743 407.578,332.455C413.697,338.014 416.728,334.752 416.733,337.502C416.736,340.029 396.098,340.49 388.696,328.385C384.662,321.787 387.3,320.592 390.528,319.611C393.526,318.7 393.51,319.486 396.539,320.4Z" style="fill:rgb(161,140,197);"/>
        <path d="M350.585,340.959C356.604,339.414 357.368,338.243 358.079,338.997C360.067,341.1 334.121,356.495 329.408,355.766C328.517,355.628 328.252,355.099 330.85,344.591C331.778,340.84 333.828,343.989 350.585,340.959Z" style="fill:rgb(99,99,131);"/>
        <path d="M261.834,366.32C260.311,363.945 260.348,363.94 260.19,363.755C258.067,361.262 257.74,361.677 257.568,361.458C256.466,360.057 260.257,358.736 263.281,357.093C266.716,355.226 266.925,356.395 268.809,358.154C272.341,361.452 274.974,357.992 284.286,353.108C292.742,348.673 293.193,351.653 293.092,352.353C292.932,353.463 281.974,359.788 271.726,364.962C265.257,368.228 263.861,370.534 261.834,366.32Z" style="fill:rgb(200,185,229);"/>
        <path d="M241.138,158.478C244.172,142.725 262.492,150.787 257.671,162.576C256.599,165.199 256.091,165.643 253.518,164.453C248.937,162.334 246.438,166.375 244.634,165.273C241.623,163.432 241.198,159.087 241.138,158.478Z" style="fill:rgb(160,138,185);"/>
        <path d="M326.057,348.391C323.65,358.423 323.928,358.616 323.171,359.075C322.287,359.61 319.502,358.77 316.479,359.299C313.539,359.813 314.298,358.235 314.738,356.563C316.291,350.656 315.319,348.968 319.451,348.144C320.375,347.96 323.424,347.352 324.499,337.5C324.954,333.325 319.994,334.389 321.456,330.483C323.262,325.657 330.892,326.183 329.761,332.539C329.532,333.821 329.475,334.146 326.057,348.391Z" style="fill:rgb(198,182,227);"/>
        <path d="M401.156,364.946C400.306,361.121 400.18,361.153 400.274,360.4C400.511,358.503 425.476,348.983 427.484,348.385C427.636,348.34 429.215,347.869 429.045,349.608C428.598,354.182 428.818,355.697 426.53,356.578C424.617,357.314 405.391,364.713 402.48,365.393C401.383,365.65 401.559,365.082 401.156,364.946Z" style="fill:rgb(169,146,201);"/>
        <path d="M165.922,267.637C167.465,262.877 167.247,262.853 169.31,258.271C170.354,255.952 172.22,263.814 173.114,266.611C174.37,270.543 178.263,269.339 180.322,269.951C182.172,270.501 185.075,282.648 184.353,283.241C183.195,284.193 169.553,275.044 169.269,274.862C165.051,272.156 164.844,271.567 165.922,267.637Z" style="fill:rgb(191,185,244);"/>
        <path d="M252.683,243.378C252.729,242.109 251.113,238.155 257.505,238.377C263.553,238.586 259.24,244.724 268.158,251.924C270.545,253.851 268.698,254.477 269.042,257.543C269.746,263.813 270.222,265.057 276.491,264.963C279.39,264.92 280.082,268.512 275.511,268.742C269.443,269.048 262.21,270.285 262.785,266.518C263.042,264.83 266.706,264.938 266.594,261.497C266.34,253.744 263.758,255.109 261.623,254.258C257.704,252.696 263.589,249.016 258.286,244.768C255.91,242.865 255.702,243.201 252.683,243.378Z" style="fill:rgb(69,66,96);"/>
        <path d="M232.593,282.448C232.851,282.236 232.647,281.197 234.6,280.803C236.222,280.476 239.223,277.963 241.291,281.594C241.757,282.413 241.586,284.609 247.534,283.788C253.499,282.966 251.463,280.207 252.714,278.65C255.123,275.655 258.14,281.242 262.345,275.377C265.172,271.432 266.027,272.58 274.47,272.074C275.216,272.03 278.707,271.124 278.239,274.458C277.742,278.006 271.418,274.399 264.767,278.87C256.86,284.183 243.421,289.529 236.686,285.192C233.967,283.441 233.867,283.519 232.593,282.448Z" style="fill:rgb(70,67,97);"/>
        <path d="M432.365,354.946C432.342,354.916 431.39,354.712 431.294,353.546C431.197,352.368 431.788,349.952 431.863,349.645C432.932,345.279 438.451,348.346 440.004,351.733C443.334,359 444.326,370.795 444.469,372.487C444.261,372.505 443.011,373.425 441.748,372.026C441.626,371.891 440.04,370.134 439.529,371.556C439.365,372.009 439.849,371.981 440.473,377.502C440.67,379.239 440.944,381.126 440.99,381.44C441.488,384.865 442.472,385.125 442.75,385.818C441.576,386.817 441.571,386.716 440.15,387.435C439.484,385.683 437.374,380.135 435.415,364.489C437.745,363.503 437.779,363.613 438.015,363.232C438.34,362.708 438.03,359.74 437.999,359.439C437.46,354.28 437.441,350.042 435.08,353.041C433.132,355.516 432.578,354.847 432.365,354.946Z" style="fill:rgb(173,168,216);"/>
        <path d="M375.198,341.677C374.861,341.036 371.295,334.25 371.27,333.517C371.2,331.413 376.16,328.587 376.502,328.573C378.386,328.493 382.484,339.464 387.203,346.692C389.057,349.533 387.586,350.536 383.302,353.058C381.025,354.399 379.459,349.6 375.198,341.677Z" style="fill:rgb(111,109,145);"/>
        <path d="M208.928,353.514C210.909,342.653 220.336,345.703 222.472,348.524C230.977,359.754 210.883,368.745 208.928,353.514Z" style="fill:rgb(167,147,206);"/>
        <path d="M243.988,369.624C248.428,359.538 257.035,364.309 258.702,368.414C263.416,380.026 242.589,385.023 243.988,369.624Z" style="fill:rgb(165,154,213);"/>
        <path d="M372.067,385.569C373.009,391.397 375.42,412.534 373.537,412.627C369.289,412.838 373.055,387.26 364.693,384.051C353.378,379.71 362.265,370.836 367.171,374.914C371.502,378.514 371.784,384.173 372.067,385.569Z" style="fill:rgb(198,184,227);"/>
        <path d="M367.069,192.53C368.895,222.352 377.296,235.632 372.48,234.582C370.611,234.174 369.614,227.795 366.299,214.556C364.957,209.195 361.036,185.205 363.39,184.352C366.771,183.126 366.864,186.152 366.874,186.478C366.969,189.52 366.927,189.483 367.069,192.53Z" style="fill:rgb(187,164,215);"/>
        <path d="M270.375,340.627C269.898,340.271 268.704,338.547 264.502,338.433C263.349,338.401 258.747,339.411 260.267,336.403C263.343,330.317 276.525,327.182 281.116,340.609C282.262,343.962 278.734,344.042 275.363,346.253C271.749,348.624 272.396,345.544 272.313,344.53C272.128,342.301 271.728,342.448 270.375,340.627Z" style="fill:rgb(105,103,136);"/>
        <path d="M372.46,267.051C372.813,267.056 373.161,266.949 373.513,266.954C384.871,267.114 390.139,274.112 391.104,280.561C392.121,287.361 387.83,281.486 376.721,275.104C368.535,270.4 368.504,270.522 367.797,270.11C364.498,268.186 372.019,267.114 372.46,267.051Z" style="fill:rgb(204,178,224);"/>
        <path d="M331.072,182.553C331.333,183.739 330.694,185.374 335.317,186.972C337.375,187.683 340.214,187.27 340.236,189.51C340.256,191.534 340.443,191.487 340.6,193.489C340.754,195.455 337.342,195.402 336.475,194.528C336.415,194.467 334.192,189.628 328.463,190.098C325.184,190.367 321.892,192.957 321.834,197.508C321.762,203.099 317.822,201.294 317.622,198.49C317.045,190.432 318.841,189.83 319.531,189.599C320.039,189.429 321.812,188.835 325.267,186.161C328.022,184.029 326.135,179.208 329.427,179.991C331.077,180.383 330.553,180.928 331.072,182.553Z" style="fill:rgb(168,146,191);"/>
        <path d="M191.962,296.456C192.043,293.478 191.621,291.681 194.379,292.819C204.86,297.143 206.068,296.373 206.179,298.545C206.65,307.685 207.22,307.643 207.095,308.427C206.823,310.144 202.89,308.227 198.453,306.621C192.557,304.486 192.766,300.254 191.962,296.456Z" style="fill:rgb(132,136,175);"/>
        <path d="M387.507,247.204C400.794,250.896 397.142,265.141 386.654,260.164C378.523,256.306 377.817,245.33 387.507,247.204Z" style="fill:rgb(145,141,170);"/>
        <path d="M251.412,212.706C251.47,213.072 252.379,213.038 251.716,214.611C251.456,215.228 249.506,215.719 249.046,218.425C248.719,220.35 249.348,221.695 245.501,221.703C228.496,221.737 227.701,221.953 227.592,220.473C227.125,214.116 230.859,214.062 231.458,214.054C246.649,213.834 246.865,214.793 251.412,212.706Z" style="fill:rgb(195,163,226);"/>
        <path d="M189.119,421.38C191.214,414.036 191.179,414.088 191.375,413.459C192.838,408.752 192.931,407.753 194.574,408.373C194.656,408.404 197.995,412.543 198.043,412.689C198.743,414.827 187.825,439.67 185.377,440.007C182.844,440.355 185.802,433.08 189.119,421.38Z" style="fill:rgb(196,180,227);"/>
        <path d="M330.927,414.469C330.164,401.389 330.524,388.926 331.872,388.909C334.625,388.876 333.149,396.512 333.129,397.466C333.047,401.451 337.018,400.25 337.663,401.379C338.43,402.719 337.347,406.122 337.279,406.455C335.506,415.074 335.32,424.495 333.5,424.473C332.028,424.455 331.243,417.272 330.927,414.469Z" style="fill:rgb(122,119,158);"/>
        <path d="M270.789,215.529C271.242,211.43 271.08,206.956 277.363,201.342C283.08,196.233 291.049,195.933 291.498,196.502C292.603,197.902 290.632,197.346 284.69,202.708C282.089,205.056 284.055,206.609 281.318,208.141C274.907,211.729 273.555,218.535 271.537,217.346C271.212,217.155 271.263,216.578 270.939,216.387L270.789,215.529Z" style="fill:rgb(191,192,216);"/>
        <path d="M267.469,216.666C268.151,217.486 268.085,217.472 268.433,218.458C266.149,221.03 265.893,221.099 263.494,220.529C256.584,218.889 252.213,228.188 260.397,231.719C262.622,232.679 261.3,235.113 259.468,235.307C253.021,235.991 252.6,235.14 252.346,234.627C252.017,233.962 250.85,218.371 253.356,217.225C254.383,216.755 254.425,216.79 267.469,216.666Z" style="fill:rgb(157,159,182);"/>
        <path d="M200.285,234.457C200.02,230.728 198.983,229.76 202.412,228.294C206.788,226.424 207.428,226.229 207.501,221.5C207.534,219.381 208.769,218.668 214.488,217.089C217.975,216.126 214.646,221.036 213.93,223.617C212.679,228.136 212.781,228.157 212.666,228.548C211.074,233.99 206.933,230.966 205.421,233.429C205.326,233.584 205.417,233.582 204.556,235.529C204.072,236.622 203.735,236.22 201.505,236.712L200.285,234.457Z" style="fill:rgb(187,184,245);"/>
        <path d="M444.25,374.803C445.876,376.227 445.887,376.434 447.051,390.536C447.567,396.791 447.037,407.611 446.695,408.634C445.546,412.066 444.366,406.816 444.311,406.57C442.159,396.996 441.718,397.125 440.15,387.435C441.571,386.716 441.576,386.817 442.75,385.818C444.565,383.022 443.411,380.957 442.961,377.467C442.774,376.016 443.249,376.172 444.25,374.803Z" style="fill:rgb(196,181,226);"/>
        <path d="M211.595,279.09C222.115,281.58 223.04,279.178 227.148,282.884C230.007,285.464 230.903,285.499 230.437,286.471C229.693,288.025 202.076,284.601 202.855,280.536C202.903,280.286 203.18,278.84 204.745,277.969C205.44,277.582 211.056,278.958 211.595,279.09Z" style="fill:rgb(190,185,243);"/>
        <path d="M391.467,227.763C396.991,228.574 398.027,228.156 399.706,233.439C400.641,236.378 402.559,240.953 400.565,241.643C395.337,243.452 395.714,237.886 384.409,229.593C384.225,229.459 382.439,228.149 382.49,227.49C382.529,226.974 390.751,227.7 391.467,227.763Z" style="fill:rgb(149,199,238);"/>
        <path d="M272.352,352.236C289.411,342.647 290.656,342.414 292.425,342.083C300.99,340.482 299.433,352.501 294.266,348.864C287.01,343.757 274.514,358.689 270.648,356.276C268.033,354.643 269.666,353.803 272.352,352.236Z" style="fill:rgb(199,183,229);"/>
        <path d="M446.297,309.206C449.767,314.861 450.391,316.154 451.178,324.5C451.529,328.217 450.965,328.201 451.079,328.5C451.325,329.145 452.538,329.031 452.784,329.677C451.261,331.92 451.484,332.301 450.474,332.369C447.814,332.548 451.223,322.54 443.504,321.478C440.099,321.009 438.183,321.641 439.207,318.398C439.97,315.985 440.305,316.08 440.342,313.523C443.325,310.269 443.475,310.128 446.297,309.206Z" style="fill:rgb(154,136,193);"/>
        <path d="M417.472,241.382C418.715,241.551 421.371,240.86 422.737,246.503C425.279,257 410.618,261.115 411.847,248.532C412.407,242.802 416.772,241.579 417.472,241.382Z" style="fill:rgb(141,137,165);"/>
        <path d="M291.465,331.437C292.07,331.206 296.148,329.651 299.558,331.399C303.18,333.257 304.062,336.965 304.205,337.566C305.116,341.393 303.297,348.456 301.401,342.547C300.728,340.452 298.877,339.519 298.573,339.366C291.945,336.025 287.603,341.617 286.917,338.442C286.233,335.276 290.926,331.833 291.465,331.437Z" style="fill:rgb(103,102,136);"/>
        <path d="M271.065,441.54C271.141,444.05 271.945,450.694 269.518,450.405C268.269,450.256 269.264,449.379 264.215,435.6C261.281,427.591 261.951,426.997 262.505,426.505C262.641,426.385 266.095,425.125 266.409,425.01C268.427,424.274 268.232,425.355 268.619,427.477C270.728,439.017 270.914,440.408 271.065,441.54Z" style="fill:rgb(196,180,229);"/>
        <path d="M419.164,200.372C418.469,202.437 413.855,216.147 411.19,226.415C411.124,226.671 410.321,229.766 408.558,228.42C407.469,227.588 407.437,227.178 411.999,211.643C412.456,210.084 417.242,193.784 418.207,192.302C419.358,190.536 421.916,192.259 421.273,194.428C421.13,194.912 421.072,194.885 419.164,200.372Z" style="fill:rgb(179,155,208);"/>
        <path d="M244.492,256.049C253.2,257.262 251.093,264.216 249.281,266.319C242.198,274.543 231.291,258.334 244.492,256.049Z" style="fill:rgb(130,128,164);"/>
        <path d="M424.206,267.415C424.539,266.5 427.632,257.997 434.405,260.759C438.933,262.606 435.896,264.646 434.863,265.821C425.762,276.175 426.351,276.63 425.449,277.412C422.474,279.988 424.096,268.214 424.206,267.415Z" style="fill:rgb(206,181,225);"/>
        <path d="M239.079,293.488C238.659,295.042 239.22,295.677 237.601,295.915C235.504,296.223 235.521,295.89 233.466,296.227C231.194,296.599 230.451,297.885 227.494,297.576C227.022,297.527 222.187,297.021 221.692,296.329C221.409,295.934 220.682,290.571 222.374,290.119C222.421,290.106 237.773,290.617 238.283,290.884C239.089,291.304 238.763,291.512 239.079,293.488Z" style="fill:rgb(98,95,131);"/>
        <path d="M226.72,191.299C225.857,190.321 225.862,190.328 225.788,190.242C225.538,189.954 225.585,189.958 225.323,189.653C219.986,183.427 218.534,182.466 220.589,180.592C222.772,178.601 223.467,179.75 227.094,183.862C236.464,194.483 236.798,194.958 235.978,195.824C232.687,199.304 231.402,196.807 226.72,191.299Z" style="fill:rgb(164,142,188);"/>
        <path d="M239.056,303.504C239.279,318.263 241.347,320.695 237.504,320.394C231.282,319.906 235.514,316.7 235.472,313.502C235.405,308.474 229.979,298.616 237.518,299.291C239.027,299.426 238.949,300.726 239.056,303.504Z" style="fill:rgb(162,163,212);"/>
        <path d="M440.477,272.496C440.933,273.534 441.257,273.384 441.359,274.503C442.727,289.512 427.43,290.537 425.854,282.469C425.58,281.064 429.388,276.901 429.51,276.894C430.468,276.842 431.211,278.626 430.354,279.357C430.34,279.369 429.261,279.598 428.649,280.737C427.598,282.694 436.667,285.279 437.638,278.519C437.683,278.206 437.609,278.234 437.481,274.572C437.926,274.547 438.125,275.374 438.57,275.349C438.738,275.34 438.622,275.229 439.403,273.426L440.477,272.496Z" style="fill:rgb(111,106,137);"/>
        <path d="M262.503,315.916C260.254,315.906 255.518,316.442 255.033,314.663C254.38,312.27 255.052,311.889 257.516,311.86C277.195,311.626 277.475,311.122 278.708,312.286C279.58,313.111 279.552,315.276 278.605,315.663C277.884,315.958 276.756,315.9 262.503,315.916Z" style="fill:rgb(110,107,139);"/>
        <path d="M226.547,323.024C227.542,323.103 228.539,323.14 229.534,323.219C233.998,323.57 231.581,328.035 234.54,327.644C235.901,327.464 235.174,323.003 238.43,323.966C240.638,324.618 239.727,326.77 240.937,330.404C242.446,334.937 235.327,331.53 233.381,330.811C228.239,328.912 217.401,323.125 226.547,323.024Z" style="fill:rgb(140,134,179);"/>
        <path d="M397.576,304.246C392.661,314.456 393.296,314.734 393.548,316.348C390.36,316.369 390.479,316.851 387.515,317.634C385.963,318.044 385.591,316.76 386.379,313.473C389.385,300.924 395.148,303.414 397.576,304.246Z" style="fill:rgb(142,149,197);"/>
        <path d="M215.376,370.443C214.799,371.947 208.696,387.863 208.062,389.206C207.637,390.108 204.605,389.695 206.318,384.438C209.216,375.545 209.325,375.611 211.871,366.637C211.957,366.334 212.541,364.275 215.583,365.3C217.813,366.052 215.453,370.245 215.376,370.443Z" style="fill:rgb(132,117,160);"/>
        <path d="M213.098,301.517C214.345,317.603 219.223,315.747 220.498,319.501C220.603,319.81 221.467,325.002 216.535,320.462C208.276,312.859 209.048,299.165 209.659,298.7C210.67,297.93 212.042,298.823 212.215,298.935C212.979,299.432 212.693,299.61 213.098,301.517Z" style="fill:rgb(190,157,216);"/>
        <path d="M430.394,299.443C430.667,299.659 429.749,300.205 430.022,300.421C431.453,301.549 438.223,300.768 443.438,307.337C443.025,307.675 440.758,309.531 438.428,311.735C430.576,307.133 428.455,307.663 428.959,304.552C429.384,301.926 429.54,302.017 430.394,299.443Z" style="fill:rgb(148,140,195);"/>
        <path d="M317.544,221.397C319.671,222.596 320.325,222.135 320.393,223.514C320.415,223.974 313.015,234.533 312.575,234.673C312.079,234.832 305.27,234.403 307.871,230.744C314.76,221.052 315.48,221.057 316.518,221.065C316.878,221.067 317.185,221.394 317.544,221.397Z" style="fill:rgb(181,151,215);"/>
        <path d="M279.782,294.338C279.929,294.906 281.187,299.757 281.367,301.505C281.612,303.892 272.617,302.748 272.392,302.65C271.862,302.419 271.462,302.246 271.355,295.503C271.264,289.767 274.708,292.774 276.379,293.803C278.829,295.313 278.996,294.373 279.782,294.338Z" style="fill:rgb(118,115,152);"/>
        <path d="M318.335,237.864C316.908,237.106 314.589,237.181 316.837,233.723C321.895,225.943 323.122,224.312 325.356,225.73C328.222,227.549 328.159,228.399 326.022,231.087C321.445,236.848 322.151,239.801 318.335,237.864Z" style="fill:rgb(181,152,214);"/>
        <path d="M396.539,320.4C399.552,321.914 399.353,322.211 402.386,323.718C405.453,325.242 409.545,325.019 407.803,327.641C406.008,330.344 407.573,332.44 407.578,332.455C407.043,332.743 407.047,335.05 404.391,332.725C404.305,332.65 404.334,332.687 403.295,331.796C402.442,331.065 392.243,322.316 395.597,320.047C395.875,319.859 396.261,320.587 396.539,320.4Z" style="fill:rgb(201,195,237);"/>
        <path d="M340.057,387.422C338.792,395.988 338.996,398.698 336.667,398.05C333.827,397.259 339.094,389.117 333.622,387.209C328.864,385.551 331.9,382.153 333.469,382.127C336.064,382.084 340.475,382.009 340.746,383.431C340.806,383.749 340.819,383.815 340.057,387.422Z" style="fill:rgb(137,132,176);"/>
        <path d="M448.516,308.384C451.122,309.04 451.174,309.214 452.205,311.648C455.111,318.503 456.025,322.688 452.784,329.677C452.538,329.031 451.325,329.145 451.079,328.5C450.965,328.201 451.529,328.217 451.178,324.5C450.391,316.154 449.767,314.861 446.297,309.206C446.451,309.152 446.572,309.026 446.726,308.973C446.868,308.923 446.859,308.929 448.516,308.384Z" style="fill:rgb(200,192,241);"/>
        <path d="M397.576,304.246C404.467,309.109 402.02,311.883 399.769,316.643C399.198,317.851 398.786,317.92 393.548,316.348C393.296,314.734 392.661,314.456 397.576,304.246Z" style="fill:rgb(198,198,248);"/>
        <path d="M284.594,367.009C284.285,366.913 281.138,365.937 280.921,365.322C280.605,364.427 285.92,360.396 289.569,361.226C295.833,362.652 297.491,362.303 296.475,364.487C294.461,368.813 285.505,367.08 284.594,367.009Z" style="fill:rgb(137,131,175);"/>
        <path d="M223.126,314.512C223.334,309.402 225.4,310.532 230.496,310.603C230.811,310.607 234.7,310.661 232.115,314.194C229.917,317.199 232.203,319.971 228.494,319.622C223.458,319.149 223.613,317.224 223.126,314.512Z" style="fill:rgb(120,120,150);"/>
        <path d="M381.417,217.928C380.931,217.85 375.612,217.005 375.344,216.917C374.061,216.496 373.532,213.81 373.472,213.505C372.467,208.395 372.283,207.86 372.564,207.55C372.99,207.078 373.609,206.393 379.38,211.635C385.657,217.335 385.613,217.783 385.54,218.518C385.437,219.561 383.613,218.754 381.417,217.928Z" style="fill:rgb(179,178,243);"/>
        <path d="M335.645,357.869C338.627,356.782 343.18,353.769 342.555,361.503C342.167,366.307 340.248,365.175 335.468,364.886C334.96,364.856 332.83,364.974 332.957,362.503C333.129,359.152 333.413,359.059 335.645,357.869Z" style="fill:rgb(136,131,171);"/>
        <path d="M159.408,264.919C159.554,264.969 162.852,265.039 161.653,268.552C161.435,269.191 160.912,270.724 153.502,270.731C148.026,270.737 146.986,262.955 155.425,263.994C155.701,264.028 159.09,264.843 159.408,264.919Z" style="fill:rgb(173,194,244);"/>
        <path d="M311.841,367.579C312.349,365.904 312.119,362.687 317.474,362.201C322.341,361.759 323.502,363.294 322.496,364.497C322.402,364.609 322.385,364.577 319.456,365.374C318.408,365.659 315.377,367.173 315.055,371.457C314.9,373.517 315.495,373.438 315.5,375.5C315.501,375.71 315.139,378.126 312.894,375.168C311.02,372.698 311.744,368.184 311.841,367.579Z" style="fill:rgb(192,177,225);"/>
        <path d="M430.666,239.169C429.355,241.486 428.15,242.447 430.691,243.186C431.024,243.283 431.44,243.31 431.506,243.315C432.907,243.408 433.624,242.459 433.65,242.448C433.92,243.048 435.588,246.75 434.725,250.6C433.909,254.234 431.529,249.018 430.971,248.185C425.663,240.257 424.887,240.929 423.695,239.354C422.247,237.441 425.701,235.713 430.666,239.169Z" style="fill:rgb(172,159,200);"/>
        <path d="M252.943,178.473C253.479,187.052 254.661,189.822 251.467,190.258C248.337,190.684 248.928,187.404 248.727,178.494C248.719,178.132 248.617,173.635 251.707,175.099C253.174,175.794 252.582,176.228 252.943,178.473Z" style="fill:rgb(158,140,183);"/>
        <path d="M342.932,253.782C346.247,248.798 350.205,251.753 351.278,253.632C354.643,259.522 342.477,264.759 342.932,253.782Z" style="fill:rgb(15,14,30);"/>
        <path d="M171.948,287.475C171.836,285.664 171.059,280.346 173.601,282.237C175.591,283.717 177.294,283.7 177.307,286.502C177.331,291.834 177.59,295.368 175.508,295.578C171.41,295.993 172.138,290.554 171.948,287.475Z" style="fill:rgb(152,154,196);"/>
        <path d="M430.394,299.443C435.303,294.636 445.421,303.192 447.495,305.502C445.582,306.69 445.603,306.684 443.438,307.337C438.223,300.768 431.453,301.549 430.022,300.421C429.749,300.205 430.667,299.659 430.394,299.443Z" style="fill:rgb(201,196,240);"/>
        <path d="M189.165,299.568C190.683,305.28 190.822,305.316 194.304,308.706C197.292,311.616 197.169,314.288 194.555,313.279C186.47,310.157 185.294,297.525 186.802,296.897C188.923,296.014 188.579,297.351 189.165,299.568Z" style="fill:rgb(193,186,236);"/>
        <path d="M217.878,246.441C217.816,244.344 217.506,244.312 218.378,242.431C220.074,238.777 226.019,239.25 221.515,234.483C221.318,234.275 218.855,231.668 221.663,230.897C223.867,230.291 223.41,231.503 224.433,233.535C226.617,237.873 226.9,238.84 222.69,241.773C217.548,245.355 222.526,248.492 221.251,250.298C219.476,252.81 217.978,246.839 217.878,246.441Z" style="fill:rgb(20,15,36);"/>
        <path d="M372.111,171.24C371.465,172.318 369.899,176.13 367.671,175.094C364.966,173.834 367.328,171.223 370.388,166.428C371.1,165.313 373.688,159.809 376.047,161.97C377.701,163.485 376.899,164.018 372.111,171.24Z" style="fill:rgb(190,166,222);"/>
        <path d="M398.533,366.537C390.491,369.733 385.802,364.803 391.677,360.77C392.232,360.39 396.715,358.29 397.64,361.409C398.961,365.863 398.508,365.922 398.533,366.537Z" style="fill:rgb(126,121,158);"/>
        <path d="M355.645,214.745C345.656,217.546 346.994,206.513 353.527,207.276C353.93,207.323 356.752,207.653 357.441,210.515C358.032,212.967 357.418,212.942 355.645,214.745Z" style="fill:rgb(15,16,37);"/>
        <path d="M243.533,343.929C251.641,343.099 254.574,342.356 253.387,345.448C252.985,346.497 252.637,347.402 239.499,347.521C236.601,347.547 236.966,345.041 237.561,344.605C238.251,344.099 238.314,344.348 243.533,343.929Z" style="fill:rgb(185,172,216);"/>
        <path d="M305.389,255.913C310.103,257.228 312.636,258.116 314.732,256.946C317.834,255.215 317.921,259.543 314.449,260.299C312.005,260.831 307.627,259.247 300.516,257.436C295.343,256.119 298.122,254.206 298.43,254.173C299.286,254.081 299.269,254.25 305.389,255.913Z" style="fill:rgb(17,15,38);"/>
        <path d="M425.088,311.536C425.081,312.033 424.989,318.941 422.692,317.266C422.149,316.871 422.536,316.694 419.38,309.557C419.202,309.156 417.017,304.215 420.493,304.193C422.321,304.181 423.373,306.224 423.512,306.494C424.567,308.542 424.333,308.578 425.088,311.536Z" style="fill:rgb(186,168,220);"/>
        <path d="M218.546,300.203C220.533,300.765 222.95,299.66 222.336,305.484C222.044,308.26 220.319,307.672 220.225,310.45C220.1,314.175 218.379,311.841 218.309,311.674C218.095,311.162 214.521,300.539 217.432,300.097C217.801,300.041 218.177,300.259 218.546,300.203Z" style="fill:rgb(119,118,155);"/>
        <path d="M434.674,177.797C436.414,176.906 436.388,176.867 436.553,176.834C436.976,176.751 441.239,178.513 434.699,181.893C430.227,184.205 427.355,187.377 425.867,186.051C423.412,183.864 428.274,181.29 434.674,177.797Z" style="fill:rgb(192,167,220);"/>
        <path d="M248.636,210.402C248.582,210.432 248.078,211.589 246.515,211.575C240.447,211.521 240.504,211.698 234.497,211.539C231.472,211.458 232.717,208.634 236.486,208.313C245.437,207.551 246.389,208.591 246.956,209.212C247.119,209.391 248.499,210.311 248.636,210.402Z" style="fill:rgb(195,167,224);"/>
        <path d="M203.725,316.295C200.799,312.761 200.74,312.835 200.565,312.479C200.533,312.413 200.326,311.992 200.626,311.57C201.132,310.858 207.622,313.196 208.441,314.541C208.729,315.013 211.826,320.097 211.833,320.567C211.897,324.478 204.243,316.814 203.725,316.295Z" style="fill:rgb(122,119,161);"/>
        <path d="M408.49,313.228C407.683,313.188 404.59,314.167 406.147,308.411C408.61,299.3 414.929,309.422 411.554,312.565C411.202,312.893 408.739,313.197 408.49,313.228Z" style="fill:rgb(171,152,209);"/>
        <path d="M165.569,240.434C164.555,238.987 163.846,239.125 164.358,237.452C164.459,237.12 165.514,235.79 166.48,235.774C166.962,235.766 173.977,241.054 172.406,244.443C171.238,246.962 169.838,245.46 165.569,240.434Z" style="fill:rgb(146,145,180);"/>
        <path d="M159.273,233.721C158.97,233.393 156.158,230.346 155.723,229.407C155.032,227.914 156.302,223.296 161.151,228.814C164.113,232.184 164.358,233.089 163.233,234.244C161.118,236.415 160.002,234.418 159.273,233.721Z" style="fill:rgb(186,201,247);"/>
        <path d="M384.322,358.594C384.128,357.445 383.225,356.988 385.399,355.364C389.884,352.012 390.62,352.371 391.986,354.143C393.493,356.098 392.76,356.501 390.659,357.776C388.008,359.386 388.338,359.713 387.442,360.432C385.596,361.914 385.523,360.571 384.322,358.594Z" style="fill:rgb(182,162,212);"/>
        <path d="M368.487,274.638C371.088,275.308 371.29,274.968 373.191,276.825C374.6,278.203 373.792,278.463 373.221,280.332C370.992,281.76 370.968,282.416 368.487,281.536C363.674,279.828 367.186,275.885 367.51,275.521L368.487,274.638Z" style="fill:rgb(246,247,248);"/>
        <path d="M211.934,253.429C212.02,253.773 214.092,259.227 209.429,256.615C203.515,253.302 210.287,243.32 211.188,247.611C211.284,248.07 211.243,248.042 211.934,253.429Z" style="fill:rgb(162,165,214);"/>
        <path d="M183.074,254.636C182.312,251.679 182.684,250.38 185.634,251.221C187.089,251.636 186.556,252.181 187.85,256.393C188.696,259.146 190.149,260.136 187.387,261.067C184.654,261.989 183.711,256.501 183.074,254.636Z" style="fill:rgb(167,148,194);"/>
        <path d="M208.422,287.758C209.419,288.235 211.047,287.601 210.635,292.53C210.408,295.235 203.648,293.04 203.53,290.496C203.258,284.605 206.878,287.357 208.422,287.758Z" style="fill:rgb(136,126,165);"/>
        <path d="M263.134,408.043C261.129,406.917 261.421,406.615 260.846,404.419C260.239,402.105 259.061,397.065 258.911,396.424C258.862,396.214 258.423,394.336 259.638,393.833C261.624,393.01 261.928,396.645 262.15,397.574C264.059,405.573 264.417,405.754 263.134,408.043Z" style="fill:rgb(139,126,168);"/>
        <path d="M444.469,372.487C444.396,373.259 444.323,374.031 444.25,374.803C443.249,376.172 442.774,376.016 442.961,377.467C443.411,380.957 444.565,383.022 442.75,385.818C442.472,385.125 441.488,384.865 440.99,381.44C440.944,381.126 440.67,379.239 440.473,377.502C439.849,371.981 439.365,372.009 439.529,371.556C440.04,370.134 441.626,371.891 441.748,372.026C443.011,373.425 444.261,372.505 444.469,372.487Z" style="fill:rgb(49,51,86);"/>
        <path d="M432.365,354.946C432.578,354.847 433.132,355.516 435.08,353.041C437.441,350.042 437.46,354.28 437.999,359.439C438.03,359.74 438.34,362.708 438.015,363.232C437.779,363.613 437.745,363.503 435.415,364.489C435.292,363.937 434.106,358.625 434.265,357.513C434.336,357.02 435.265,356.926 435.294,356.429C435.315,356.068 434.651,356.095 434.36,355.882C433.461,355.225 433.394,355.429 432.365,354.946Z" style="fill:rgb(99,101,141);"/>
        <path d="M411.51,263.975C413.453,264.304 413.453,264.263 413.609,264.33C413.862,264.44 416.488,266.695 411.478,267.037C403.373,267.591 401.782,269.219 401.408,267.539C400.778,264.708 409.297,264.178 411.51,263.975Z" style="fill:rgb(64,57,91);"/>
        <path d="M412.463,274.119C403.562,275.28 403.498,275.422 402.843,275.011C398.151,272.071 419.033,269.28 414.591,273.604C414.465,273.726 414.435,273.642 412.463,274.119Z" style="fill:rgb(62,56,90);"/>
        <path d="M336.514,278.498C336.781,276.842 336.708,276.821 336.802,276.711C337.241,276.195 342.035,276.634 342.488,276.675C342.804,276.704 345.986,276.995 344.978,279.76C344.573,280.869 339.029,280.481 338.51,280.445C336.533,280.306 336.595,278.702 336.514,278.498Z" style="fill:rgb(178,146,209);"/>
        <path d="M310.609,247.169C303.401,245.087 302.309,245.005 303.128,243.283C303.45,242.606 303.957,241.543 312.37,244.826C315.628,246.097 313.949,248.018 312.481,247.771C311.835,247.662 311.255,247.278 310.609,247.169Z" style="fill:rgb(16,14,33);"/>
        <path d="M218.644,292.498C218.549,293.425 219.728,296.614 215.499,295.502C215.08,295.392 212.571,294.732 213.438,290.482C213.785,288.778 215.808,289.208 216.528,289.348C219.041,289.835 218.517,291.335 218.644,292.498Z" style="fill:rgb(190,182,235);"/>
        <path d="M180.97,243.447C180.943,240.538 181.006,239.139 183.693,240.206C184.612,240.571 185.235,245.999 185.294,246.517C185.584,249.041 182.488,248.649 181.987,248.104C181.425,247.494 181.64,247.438 180.97,243.447Z" style="fill:rgb(177,158,200);"/>
        <path d="M309.423,203.093C314.424,202.472 314.559,202.037 315.268,202.742C316.267,203.736 314.743,204.536 314.602,204.61C309.516,207.282 307.227,211.098 307.153,206.547C307.095,203.007 308.241,203.535 309.423,203.093Z" style="fill:rgb(136,137,164);"/>
        <path d="M308.637,253.037C301.216,251.046 301.108,250.945 300.888,250.326C299.565,246.613 309.869,250.324 311.189,250.974C311.424,251.09 313.609,254.138 308.637,253.037Z" style="fill:rgb(17,17,37);"/>
        <path d="M327.634,197.826C325.544,198.408 324.477,198.707 324.762,196.532C325.638,189.857 337.913,194.815 331.512,196.535C329.53,197.067 329.605,197.17 327.634,197.826Z" style="fill:rgb(158,166,203);"/>
        <path d="M250.546,374.364C244.468,370.541 253.178,365.361 254.524,370.493C255.552,374.414 250.99,374.369 250.546,374.364Z" style="fill:rgb(59,58,79);"/>
        <path d="M344.473,378.918C339.621,378.533 339.475,378.848 338.827,378.133C338.353,377.61 338.544,376.643 338.569,376.515C338.994,374.354 348.16,375.478 348.423,377.506C348.675,379.446 346.102,379.022 344.473,378.918Z" style="fill:rgb(176,160,215);"/>
        <path d="M387.53,252.561C393.671,248.978 395.478,257.867 390.501,257.836C386.996,257.814 387.514,253.771 387.53,252.561Z" style="fill:rgb(9,8,23);"/>
        <path d="M218.644,174.374C220.469,176.676 220.627,177.391 218.196,179.001C216.006,180.452 210.834,174.685 215.534,172.73C217.117,172.072 218.446,174.167 218.644,174.374Z" style="fill:rgb(182,192,252);"/>
        <path d="M200.377,209.176C198.023,209.852 197.415,209.856 196.842,207.473C196.334,205.359 204.721,202.374 204.605,206.509C204.558,208.167 202.878,208.419 200.377,209.176Z" style="fill:rgb(176,152,206);"/>
        <path d="M191.414,209.387C193.266,208.456 193.839,207.441 194.744,209.341C194.827,209.516 195.514,210.959 194.934,211.761C191.837,216.039 189.867,214.833 189.446,214.576C186.348,212.68 190.642,210.028 191.414,209.387Z" style="fill:rgb(179,156,210);"/>
        <path d="M417.554,246.319C419.531,247.484 420.113,247.285 420.129,249.558C420.172,255.39 412.186,252.526 414.945,247.87C415.366,247.159 415.508,247.32 417.554,246.319Z" style="fill:rgb(11,8,24);"/>
        <path d="M299.537,290.902C297.353,290.293 296.724,290.75 296.259,288.553C295.138,283.253 304.211,284.241 302.005,289.218C301.35,290.696 300.985,290.278 299.537,290.902Z" style="fill:rgb(143,180,229);"/>
        <path d="M350.56,337.047C348.087,330.79 357.4,332.054 358.033,332.894C360.012,335.52 352.56,336.627 350.56,337.047Z" style="fill:rgb(101,100,133);"/>
        <path d="M301.937,270.521C298.971,277.526 293.389,269.471 297.53,267.556C297.74,267.459 299.081,266.839 300.413,267.636C301.91,268.53 301.451,268.869 301.937,270.521Z" style="fill:rgb(147,181,231);"/>
        <path d="M210.474,203.947C212.147,204.101 214.993,203.784 214.548,206.507C214.087,209.333 207.668,208.26 207.245,206.609C206.559,203.933 207.751,204.024 210.474,203.947Z" style="fill:rgb(180,159,208);"/>
        <path d="M230.112,303.534C230.079,304.795 231.139,307.273 227.505,307.228C227.087,307.223 224.138,307.186 225.379,302.453C225.741,301.072 226.076,301.238 227.492,301.212C230.336,301.16 229.925,303.02 230.112,303.534Z" style="fill:rgb(126,124,164);"/>
        <path d="M447.495,305.502C447.835,306.463 448.176,307.424 448.516,308.384C446.859,308.929 446.868,308.923 446.726,308.973C446.572,309.026 446.451,309.152 446.297,309.206C443.475,310.128 443.325,310.269 440.342,313.523C440.3,313.386 440.035,313.411 439.993,313.274C439.925,313.055 440.125,312.806 440.052,312.588C439.663,311.439 438.735,312.059 438.711,312.058C438.568,312.054 438.571,311.74 438.428,311.735C440.758,309.531 443.025,307.675 443.438,307.337C445.603,306.684 445.582,306.69 447.495,305.502Z" style="fill:rgb(69,68,106);"/>
        <path d="M398.213,136.422C398.079,136.523 397.374,138.36 394.507,137.472C389.581,135.946 391.524,131.34 395.5,132.834C398.488,133.958 398.103,135.861 398.213,136.422Z" style="fill:rgb(232,236,251);"/>
        <path d="M218.66,351.325C222.35,357.226 213.892,358.005 213.969,353.512C214.004,351.458 215.399,350.909 215.635,350.816C217.175,350.209 217.209,350.533 218.66,351.325Z" style="fill:rgb(66,63,84);"/>
        <path d="M317.738,345.398C317.944,343.852 317.808,343.887 318.135,342.414C318.432,341.077 319.19,334.022 321.353,335.691C322.224,336.364 320.951,342.04 320.83,342.58C320.021,346.185 318.864,345.455 318.429,345.666L317.738,345.398Z" style="fill:rgb(158,141,187);"/>
        <path d="M333.621,218.324C336.177,220.239 336.942,219.855 336.864,221.555C336.849,221.884 336.66,223.703 332.767,221.107C332.651,221.03 327.011,218.213 328.617,216.63C329.517,215.743 333.263,218.099 333.621,218.324Z" style="fill:rgb(14,13,31);"/>
        <path d="M182.526,298.146C181.397,296.932 180.866,297.056 180.848,293.5C180.847,293.335 180.61,287.646 181.331,287.278C183.574,286.131 183.25,290.655 183.294,296.478C183.302,297.64 182.553,298.087 182.526,298.146Z" style="fill:rgb(97,95,121);"/>
        <path d="M440.477,272.496L439.403,273.426C438.762,273.808 438.121,274.19 437.481,274.572C437.122,274.445 433.722,273.242 435.292,270.353C436.235,268.618 436.617,268.913 438.535,269.383C440.662,269.903 440.39,270.439 440.477,272.496Z" style="fill:rgb(242,243,245);"/>
        <path d="M378.438,220.913C380.178,221.131 384.122,221.433 384.72,222.439C385.331,223.464 384.725,223.52 383.539,223.599C377.201,224.019 375.548,224.011 375.256,222.556C374.792,220.253 376.098,220.924 378.438,220.913Z" style="fill:rgb(97,95,125);"/>
        <path d="M192.478,266.507C193.35,268.13 193.113,268.251 194.468,269.536C196.118,271.102 196.193,271.697 194.344,273.084C192.07,274.789 189.745,269.534 189.298,268.754C189.494,268.662 191.751,267.608 191.751,267.608C192.098,267.338 192.13,266.777 192.478,266.507Z" style="fill:rgb(137,125,163);"/>
        <path d="M263.902,225.533C263.799,225.894 263.432,229.833 260.438,228.633C256.967,227.241 260.356,221.227 263.316,223.701C263.434,223.8 263.359,223.835 263.902,225.533Z" style="fill:rgb(180,175,209);"/>
        <path d="M292.07,260.168C291.962,260.599 292.261,261.068 292.153,261.5C291.897,262.525 291.403,262.292 291.277,263.376C291.247,263.64 290.011,274.263 288.752,265.529C288.511,263.854 289.702,264.098 289.625,262.436C289.607,262.049 288.876,261.883 288.936,261.5C289.017,260.988 289.876,260.838 289.957,260.325C289.664,253.157 293.142,250.49 293.708,252.378C293.789,252.647 293.509,256.188 292.07,260.168Z" style="fill:rgb(14,13,34);"/>
        <path d="M180.209,234.494C180.229,234.22 180.427,231.485 181.406,231.278C184.982,230.519 184.883,236.517 183.275,237.114C180.811,238.029 180.575,237.1 180.209,234.494Z" style="fill:rgb(176,155,201);"/>
        <path d="M184.191,218.364C185.498,216.163 185.199,215.311 186.497,215.756C190.15,217.008 187.889,222.789 185.455,221.675C182.616,220.376 184.113,218.773 184.191,218.364Z" style="fill:rgb(185,164,210);"/>
        <path d="M252.758,169.501C252.381,172.177 252.214,173.079 249.575,172.326C247.507,171.736 248.067,165.844 251.35,166.99C252.87,167.52 252.462,167.947 252.758,169.501Z" style="fill:rgb(181,201,251);"/>
        <path d="M197.21,277.933C195.607,276.512 194.517,276.289 195.991,274.724C197.715,272.896 198.147,273.399 200.213,274.903C201.823,276.075 201.105,280.193 197.21,277.933Z" style="fill:rgb(174,156,196);"/>
        <path d="M380.387,159.399C379.994,159.636 379.821,160.15 379.428,160.386C377.991,161.251 374.952,158.227 377.677,155.699C378.525,154.913 383.49,155.803 380.387,159.399Z" style="fill:rgb(145,131,168);"/>
        <path d="M192.478,266.507C192.13,266.777 192.098,267.338 191.751,267.608C191.751,267.608 189.494,268.662 189.298,268.754C184.515,262.431 190.068,263.393 190.446,263.583C190.946,263.835 192.336,266.26 192.478,266.507Z" style="fill:rgb(168,148,193);"/>
        <path d="M218.322,209.916C218.166,209.74 216.698,209.464 217.036,207.44C217.71,203.393 223.312,206.754 221.196,209.25C220.157,210.476 219.915,209.998 218.322,209.916Z" style="fill:rgb(187,165,213);"/>
        <path d="M363.67,178.57C366.475,174.037 369.791,180.982 366.53,181.575C363.743,182.082 363.168,181.338 363.67,178.57Z" style="fill:rgb(157,139,187);"/>
        <path d="M185.105,226.407C184.953,226.786 184.928,229.093 182.487,228.533C180.904,228.169 181.662,224.885 181.734,224.57C182.028,223.298 182.266,223.178 183.504,223.473C185.412,223.928 185.075,224.458 185.105,226.407Z" style="fill:rgb(171,150,199);"/>
        <path d="M352.501,294.453C358.122,295.262 354.867,297.583 354.574,297.67C353.454,298.005 351.484,297.9 350.725,297.243C348.826,295.599 349.975,294.774 352.501,294.453Z" style="fill:rgb(197,196,227);"/>
        <path d="M463.366,163.524C463.255,163.823 462.002,167.229 459.494,164.505C457.963,162.841 459.523,159.317 462.5,161.883C462.612,161.98 462.564,162.004 463.366,163.524Z" style="fill:rgb(226,233,250);"/>
        <path d="M309.467,302.573C309.227,302.356 306.179,299.603 309.51,298.527C311.761,297.8 312.524,299.802 312.534,300.499C312.569,302.764 311.743,302.453 309.467,302.573Z" style="fill:rgb(143,184,231);"/>
        <path d="M430.666,239.169C432.398,240.62 432.383,240.609 433.65,242.448C433.624,242.459 432.907,243.408 431.506,243.315C431.44,243.31 431.024,243.283 430.691,243.186C428.15,242.447 429.355,241.486 430.666,239.169Z" style="fill:rgb(236,236,239);"/>
        <path d="M185.855,292.474C185.948,287.003 188.575,290.966 188.653,291.473C189.017,293.837 186.713,295.994 185.855,292.474Z" style="fill:rgb(156,145,192);"/>
        <path d="M252.182,313.544C251.797,318.507 248.777,315.01 248.929,313.529C248.948,313.344 249.103,311.85 250.512,311.815C251.931,311.781 251.739,312.24 252.182,313.544Z" style="fill:rgb(161,160,209);"/>
        <path d="M441.231,174.074C442.388,173.761 442.378,173.725 442.481,173.736C445.397,174.046 443.121,179.515 441.037,176.957C439.982,175.661 440.41,175.503 441.231,174.074Z" style="fill:rgb(153,137,179);"/>
        <path d="M326.833,362.533C327.446,360.643 327.368,360.61 327.494,360.494C329.933,358.257 329.897,364.24 328.544,364.592C326.923,365.014 327.323,364.111 326.833,362.533Z" style="fill:rgb(46,44,63);"/>
        <path d="M421.244,187.245C423.144,186.429 423.549,186.605 424.298,188.523C425.094,190.561 419.593,191.406 421.244,187.245Z" style="fill:rgb(166,146,195);"/>
        <path d="M345.911,255.521C346.205,255.248 346.152,254.715 346.446,254.442C347.608,253.362 350.215,255.2 348.705,256.707C347.281,258.129 346.915,257.278 345.911,255.521Z" style="fill:rgb(232,229,236);"/>
        <path d="M228.374,276.494C230.155,278.491 230.218,278.425 230.367,278.603C231.745,280.248 230.591,281.081 230.573,281.168C228.728,279.779 228.647,279.886 227.425,277.943C227.741,277.46 228.058,276.977 228.374,276.494Z" style="fill:rgb(75,65,96);"/>
        <path d="M352.443,212.65C351.435,211.656 350.641,211.619 351.527,210.522C353.068,208.616 356.416,212.254 353.559,212.728C353.191,212.789 352.811,212.589 352.443,212.65Z" style="fill:rgb(174,176,221);"/>
        <path d="M382.188,284.555C380.941,288.907 378.707,284.874 379.704,283.68C379.8,283.566 380.55,282.668 381.545,283.432C381.887,283.695 381.846,284.293 382.188,284.555Z" style="fill:rgb(207,206,215);"/>
        <path d="M249.009,239.496C249.351,242.248 249.391,242.229 249.379,242.468C249.333,243.336 249.389,243.616 248.502,243.53C248.217,243.503 248.13,243.494 246.473,240.583C247.318,240.22 248.164,239.858 249.009,239.496Z" style="fill:rgb(129,110,150);"/>
        <path d="M399.632,140.307C399.63,141.002 400.148,140.814 400.146,141.5C400.146,141.602 400.145,142.27 399.627,142.668C398.047,143.882 396.406,140.511 398.412,140.174C398.815,140.106 399.228,140.374 399.632,140.307Z" style="fill:rgb(228,232,251);"/>
        <path d="M405.9,295.435C406.333,295.004 405.937,294.806 406.364,294.38C406.432,294.313 406.89,293.856 407.455,293.886C409.6,293.997 408.186,297.757 406.517,296.474C406.198,296.228 406.22,295.681 405.9,295.435Z" style="fill:rgb(47,41,73);"/>
        <path d="M417.895,294.483C418.421,294.076 417.82,293.764 418.36,293.346C418.437,293.286 418.748,293.045 419.571,293.184C421.492,293.508 420.076,296.964 418.43,295.587C418.116,295.324 418.209,294.745 417.895,294.483Z" style="fill:rgb(39,33,62);"/>
        <path d="M270.789,215.529L270.939,216.387C270.104,217.078 269.268,217.768 268.433,218.458C268.085,217.472 268.151,217.486 267.469,216.666C267.771,216.551 268.137,216.785 268.439,216.671C268.892,216.499 268.655,216.263 269.096,216.049C269.922,215.648 269.987,215.919 270.789,215.529Z" style="fill:rgb(78,78,95);"/>
        <path d="M463.629,170.209C463.48,169.888 463.049,169.759 462.9,169.439C462.361,168.278 464.56,166.704 465.281,168.5C465.763,169.702 464.641,170.196 464.5,170.258C464.234,170.376 463.895,170.091 463.629,170.209Z" style="fill:rgb(224,230,250);"/>
        <path d="M228.2,275.429L228.374,276.494C228.058,276.977 227.741,277.46 227.425,277.943C227.054,277.551 226.684,277.159 226.313,276.767C227.324,276.165 227.46,276.374 228.2,275.429Z" style="fill:rgb(113,95,134);"/>
        <path d="M284.331,335.427C284.142,335.992 284.237,336.627 284.048,337.193C283.802,337.933 283.573,337.921 283.5,337.917C283.36,337.91 283.431,337.813 282.535,336.461C283.546,336.109 283.522,336.156 284.331,335.427Z" style="fill:rgb(65,66,87);"/>
        <path d="M439.403,273.426C438.622,275.229 438.738,275.34 438.57,275.349C438.125,275.374 437.926,274.547 437.481,274.572C438.121,274.19 438.762,273.808 439.403,273.426Z" style="fill:rgb(162,158,178);"/>
        <path d="M317.738,345.398L318.429,345.666C318.108,346.099 318.366,346.66 317.954,346.308C317.717,346.105 317.975,345.601 317.738,345.398Z" style="fill:rgb(87,78,108);"/>
    </g>
</svg>
